<?xml version="1.0" encoding="UTF-8"?>
<svg width="166px" height="60px" viewBox="0 0 166 60" version="1.1" xmlns="http://www.w3.org/2000/svg" xmlns:xlink="http://www.w3.org/1999/xlink">
    <title>Artboard</title>
    <defs>
        <polygon id="path-1" points="0 0 26 0 26 17 0 17"></polygon>
    </defs>
    <g id="Artboard" stroke="none" stroke-width="1" fill="none" fill-rule="evenodd">
        <g id="Group-Copy-2" transform="translate(3.000000, 12.000000)">
            <rect id="Rectangle" stroke-opacity="0.3" stroke="#FFFFFF" fill="#208AEA" x="-0.5" y="-0.5" width="161" height="37" rx="18.5"></rect>
            <g id="Group-3" transform="translate(41.000000, 17.500000) scale(-1, 1) rotate(-14.000000) translate(-41.000000, -17.500000) translate(28.000000, 9.000000)">
                <mask id="mask-2" fill="white">
                    <use xlink:href="#path-1"></use>
                </mask>
                <g id="Clip-2"></g>
                <path d="M18.2859477,17 C18.5399775,16.6886422 18.4849351,16.3731328 18.5315094,15.8998747 L18.8786879,12.2466369 L15.2418241,14.637849 C15.7625858,14.8744781 17.7863562,16.5516514 18.2859477,17 L18.2859477,17 Z M9.97916482,16.8048869 C9.70396486,16.124049 9.14086286,15.3394331 8.72593988,14.6420006 L0,0 L26,7.20268577 L22.134513,9.53992718 C21.4105178,9.96751779 21.5544749,9.77240466 21.2242325,10.6234461 L18.9252623,16.2859612 C18.9887607,15.0073291 20.2631557,11.1921791 20.1107306,10.253966 L0.931450639,0.506470908 C1.53264686,1.04200298 2.48103362,1.49450315 3.19654868,1.93870014 L14.3569478,8.68473414 C14.9115818,9.00854671 18.5230414,11.1548266 18.7093267,11.3956073 L9.97916482,16.8048869 Z" id="Fill-1" fill="#FFFFFF" mask="url(#mask-2)"></path>
            </g>
            <path d="M68.3375,27.2 C69.2875,27.2 70.1354167,27.0541667 70.88125,26.7625 C71.6270833,26.4708333 72.25625,26.0708333 72.76875,25.5625 C73.28125,25.0541667 73.6708333,24.45625 73.9375,23.76875 C74.2041667,23.08125 74.3375,22.3458333 74.3375,21.5625 C74.3375,20.8208333 74.2145833,20.1958333 73.96875,19.6875 C73.7229167,19.1791667 73.3979167,18.75 72.99375,18.4 C72.5895833,18.05 72.13125,17.7604167 71.61875,17.53125 C71.10625,17.3020833 70.58125,17.0958333 70.04375,16.9125 C69.50625,16.7291667 68.98125,16.5520833 68.46875,16.38125 C67.95625,16.2104167 67.4979167,16.0083333 67.09375,15.775 C66.6895833,15.5416667 66.3645833,15.2604167 66.11875,14.93125 C65.8729167,14.6020833 65.75,14.1875 65.75,13.6875 C65.75,13.2958333 65.8208333,12.93125 65.9625,12.59375 C66.1041667,12.25625 66.3145833,11.9625 66.59375,11.7125 C66.8729167,11.4625 67.2208333,11.2645833 67.6375,11.11875 C68.0541667,10.9729167 68.5333333,10.9 69.075,10.9 C69.65,10.9 70.1395833,10.9708333 70.54375,11.1125 C70.9479167,11.2541667 71.29375,11.4104167 71.58125,11.58125 C71.86875,11.7520833 72.10625,11.9083333 72.29375,12.05 C72.48125,12.1916667 72.6458333,12.2625 72.7875,12.2625 C72.9208333,12.2625 73.0291667,12.23125 73.1125,12.16875 C73.1958333,12.10625 73.275,12.0125 73.35,11.8875 L73.35,11.8875 L73.9375,10.7375 C73.3208333,10.1375 72.6,9.67916667 71.775,9.3625 C70.95,9.04583333 70.0375,8.8875 69.0375,8.8875 C68.1458333,8.8875 67.35625,9.025 66.66875,9.3 C65.98125,9.575 65.4041667,9.94166667 64.9375,10.4 C64.4708333,10.8583333 64.1145833,11.3833333 63.86875,11.975 C63.6229167,12.5666667 63.5,13.1791667 63.5,13.8125 C63.5,14.6041667 63.6229167,15.26875 63.86875,15.80625 C64.1145833,16.34375 64.4375,16.7916667 64.8375,17.15 C65.2375,17.5083333 65.69375,17.8 66.20625,18.025 C66.71875,18.25 67.24375,18.4479167 67.78125,18.61875 C68.31875,18.7895833 68.84375,18.95625 69.35625,19.11875 C69.86875,19.28125 70.325,19.4791667 70.725,19.7125 C71.125,19.9458333 71.4479167,20.2354167 71.69375,20.58125 C71.9395833,20.9270833 72.0625,21.3708333 72.0625,21.9125 C72.0625,22.4041667 71.9791667,22.85 71.8125,23.25 C71.6458333,23.65 71.40625,23.99375 71.09375,24.28125 C70.78125,24.56875 70.4,24.7916667 69.95,24.95 C69.5,25.1083333 68.9875,25.1875 68.4125,25.1875 C67.7208333,25.1875 67.1354167,25.09375 66.65625,24.90625 C66.1770833,24.71875 65.76875,24.5125 65.43125,24.2875 C65.09375,24.0625 64.8125,23.85625 64.5875,23.66875 C64.3625,23.48125 64.1625,23.3875 63.9875,23.3875 C63.8708333,23.3875 63.7645833,23.41875 63.66875,23.48125 C63.5729167,23.54375 63.4916667,23.6208333 63.425,23.7125 L63.425,23.7125 L62.725,24.8625 C63.4,25.5791667 64.2145833,26.1479167 65.16875,26.56875 C66.1229167,26.9895833 67.1791667,27.2 68.3375,27.2 Z M81.9125,27.175 C82.3708333,27.175 82.8333333,27.1354167 83.3,27.05625 C83.7666667,26.9770833 84.21875,26.8583333 84.65625,26.7 C85.09375,26.5416667 85.5041667,26.3395833 85.8875,26.09375 C86.2708333,25.8479167 86.6,25.5583333 86.875,25.225 L86.875,25.225 L86.25,24.4125 C86.15,24.2708333 86.0083333,24.2 85.825,24.2 C85.6833333,24.2 85.5145833,24.2645833 85.31875,24.39375 C85.1229167,24.5229167 84.8791667,24.6625 84.5875,24.8125 C84.2958333,24.9625 83.9479167,25.1020833 83.54375,25.23125 C83.1395833,25.3604167 82.6583333,25.425 82.1,25.425 C81.5,25.425 80.9583333,25.3270833 80.475,25.13125 C79.9916667,24.9354167 79.575,24.6395833 79.225,24.24375 C78.875,23.8479167 78.6,23.3541667 78.4,22.7625 C78.2,22.1708333 78.0916667,21.475 78.075,20.675 L78.075,20.675 L86.5,20.675 C86.7083333,20.675 86.85,20.6166667 86.925,20.5 C87,20.3833333 87.0375,20.15 87.0375,19.8 C87.0375,18.9 86.90625,18.0979167 86.64375,17.39375 C86.38125,16.6895833 86.0166667,16.0979167 85.55,15.61875 C85.0833333,15.1395833 84.5291667,14.7729167 83.8875,14.51875 C83.2458333,14.2645833 82.5458333,14.1375 81.7875,14.1375 C80.8708333,14.1375 80.0458333,14.2979167 79.3125,14.61875 C78.5791667,14.9395833 77.9583333,15.38125 77.45,15.94375 C76.9416667,16.50625 76.5520833,17.1708333 76.28125,17.9375 C76.0104167,18.7041667 75.875,19.5291667 75.875,20.4125 C75.875,21.5041667 76.025,22.4708333 76.325,23.3125 C76.625,24.1541667 77.04375,24.8604167 77.58125,25.43125 C78.11875,26.0020833 78.75625,26.4354167 79.49375,26.73125 C80.23125,27.0270833 81.0375,27.175 81.9125,27.175 Z M85.0375,19.2875 L78.15,19.2875 C78.3,18.1875 78.6833333,17.3270833 79.3,16.70625 C79.9166667,16.0854167 80.7625,15.775 81.8375,15.775 C82.3458333,15.775 82.7979167,15.8604167 83.19375,16.03125 C83.5895833,16.2020833 83.925,16.44375 84.2,16.75625 C84.475,17.06875 84.6833333,17.4395833 84.825,17.86875 C84.9666667,18.2979167 85.0375,18.7708333 85.0375,19.2875 L85.0375,19.2875 Z M91.8,27 L91.8,17.675 C92.2833333,17.1333333 92.8104167,16.7041667 93.38125,16.3875 C93.9520833,16.0708333 94.5666667,15.9125 95.225,15.9125 C96.125,15.9125 96.79375,16.1770833 97.23125,16.70625 C97.66875,17.2354167 97.8875,17.9791667 97.8875,18.9375 L97.8875,18.9375 L97.8875,27 L100.1125,27 L100.1125,18.9375 C100.1125,18.2208333 100.020833,17.5666667 99.8375,16.975 C99.6541667,16.3833333 99.3854167,15.8770833 99.03125,15.45625 C98.6770833,15.0354167 98.2354167,14.7104167 97.70625,14.48125 C97.1770833,14.2520833 96.5666667,14.1375 95.875,14.1375 C94.9833333,14.1375 94.1979167,14.325 93.51875,14.7 C92.8395833,15.075 92.225,15.5666667 91.675,16.175 L91.675,16.175 L91.5,14.8 C91.4166667,14.4916667 91.2166667,14.3375 90.9,14.3375 L90.9,14.3375 L89.575,14.3375 L89.575,27 L91.8,27 Z M107.0375,27.175 C107.9375,27.175 108.735417,26.9770833 109.43125,26.58125 C110.127083,26.1854167 110.745833,25.6583333 111.2875,25 L111.2875,25 L111.4875,26.5375 C111.570833,26.8458333 111.770833,27 112.0875,27 L112.0875,27 L113.4125,27 L113.4125,8.5875 L111.1875,8.5875 L111.1875,15.6125 C110.754167,15.1375 110.2625,14.76875 109.7125,14.50625 C109.1625,14.24375 108.5,14.1125 107.725,14.1125 C106.866667,14.1125 106.1,14.28125 105.425,14.61875 C104.75,14.95625 104.177083,15.4208333 103.70625,16.0125 C103.235417,16.6041667 102.875,17.3020833 102.625,18.10625 C102.375,18.9104167 102.25,19.7791667 102.25,20.7125 C102.25,21.7625 102.3625,22.6916667 102.5875,23.5 C102.8125,24.3083333 103.133333,24.9833333 103.55,25.525 C103.966667,26.0666667 104.470833,26.4770833 105.0625,26.75625 C105.654167,27.0354167 106.3125,27.175 107.0375,27.175 Z M107.775,25.375 C107.258333,25.375 106.8,25.2875 106.4,25.1125 C106,24.9375 105.6625,24.6604167 105.3875,24.28125 C105.1125,23.9020833 104.904167,23.41875 104.7625,22.83125 C104.620833,22.24375 104.55,21.5375 104.55,20.7125 C104.55,19.1541667 104.866667,17.9541667 105.5,17.1125 C106.133333,16.2708333 107.041667,15.85 108.225,15.85 C108.816667,15.85 109.35625,15.9604167 109.84375,16.18125 C110.33125,16.4020833 110.779167,16.7875 111.1875,17.3375 L111.1875,17.3375 L111.1875,23.4625 C110.729167,24.0708333 110.227083,24.5416667 109.68125,24.875 C109.135417,25.2083333 108.5,25.375 107.775,25.375 Z M117.45,27 C117.625,27 117.760417,26.9520833 117.85625,26.85625 C117.952083,26.7604167 118.0375,26.6541667 118.1125,26.5375 L118.1125,26.5375 L122.7875,19.525 C122.879167,19.3666667 122.954167,19.2 123.0125,19.025 L123.0125,19.025 L127.8125,26.5375 C127.879167,26.6541667 127.964583,26.7604167 128.06875,26.85625 C128.172917,26.9520833 128.316667,27 128.5,27 L128.5,27 L130.9,27 L124.7625,17.6875 L130.7,9.0875 L128.3875,9.0875 C128.2625,9.0875 128.15625,9.12291667 128.06875,9.19375 C127.98125,9.26458333 127.9,9.35833333 127.825,9.475 L127.825,9.475 L123.4125,16.025 C123.295833,16.2333333 123.208333,16.425 123.15,16.6 L123.15,16.6 L118.475,9.425 C118.408333,9.31666667 118.333333,9.23333333 118.25,9.175 C118.166667,9.11666667 118.0375,9.0875 117.8625,9.0875 L117.8625,9.0875 L115.45,9.0875 L121.3625,17.8 L115.2,27 L117.45,27 Z" id="SendX" fill="#FFFFFF" fill-rule="nonzero"></path>
        </g>
    </g>
</svg>