<svg xmlns="http://www.w3.org/2000/svg" viewBox="0 0 239 41" fill="none"><path d="M16.5112 5.244C17.962 5.03675 18.9292 3.72414 18.7219 2.27336C18.5147 0.822585 17.2021 -0.1446 15.7513 0.0626537C14.3005 0.269908 13.3333 1.58252 13.5406 3.03329C13.5406 3.24055 13.6097 3.4478 13.6788 3.65505L8.5665 12.0834H12.5043L16.5112 5.244Z" fill="url(#paint0_linear)"></path><path d="M26.5976 3.65506C27.1503 2.27337 26.5285 0.753506 25.1468 0.200829C23.7651 -0.351848 22.2453 0.269914 21.6926 1.65161C21.1399 3.0333 21.7617 4.55316 23.1434 5.10584C23.3506 5.17492 23.5579 5.24401 23.7651 5.24401L27.703 12.0143H31.6408L26.5976 3.65506Z" fill="url(#paint1_linear)"></path><path d="M2.76339 18.6464H4.76684H21.9689C22.038 18.5082 22.1071 18.4392 22.1762 18.301C22.5907 17.6792 23.0743 17.2647 23.4888 16.9193C23.9033 16.5739 24.3869 16.3666 24.8014 16.2284C25.6995 15.9521 26.5976 16.0903 27.4266 16.5048C27.7029 15.5376 28.3247 14.8468 29.2228 14.3632C29.4991 14.225 29.7755 14.1559 29.9827 14.0868L30.3282 13.9487H31.0881H31.2953H31.5026H32.2625L32.6079 14.0868C32.7461 14.1559 33.0225 14.225 33.3679 14.3632C34.266 14.7777 34.8877 15.5376 35.1641 16.5048C35.9931 16.0903 36.8912 15.9521 37.7893 16.2284C38.2729 16.3666 38.6874 16.5739 39.1019 16.9193C39.3092 17.0575 39.4473 17.1956 39.6546 17.4029C39.9309 16.9884 40.1382 16.4357 40.1382 15.883V14.7777C40.1382 13.2578 38.8946 12.0143 37.3748 12.0143H31.5717H27.6339H12.4352H8.49741H2.76339C1.24352 12.0143 0 13.2578 0 14.7777V15.883C0 17.4029 1.24352 18.6464 2.76339 18.6464ZM6.56304 16.0212C6.56304 15.1922 7.25389 14.5013 8.0829 14.5013C8.91192 14.5013 9.60276 15.1922 9.60276 16.0212C9.60276 16.8502 8.91192 17.5411 8.0829 17.5411C7.25389 17.5411 6.56304 16.9193 6.56304 16.0212C6.56304 16.0903 6.56304 16.0903 6.56304 16.0212Z" fill="url(#paint2_linear)"></path><path d="M22.3834 33.845C21.7617 33.0851 21.5544 32.187 21.6926 31.2198C21.6926 31.0817 21.7617 30.8744 21.8307 30.6671C21.8998 30.3908 22.038 30.1836 22.1762 29.9763C21.9689 29.9072 21.7617 29.8381 21.5544 29.769V29.8381C21.5544 30.1836 21.3471 30.529 21.0708 30.6671C20.8636 30.8053 20.6563 30.8744 20.38 30.8744H19.7582C19.1364 30.8744 18.6528 30.3908 18.6528 29.769V28.8709L18.3765 22.2388C18.3765 21.7552 18.7219 21.3407 19.2055 21.3407H20.9326C21.3471 21.3407 21.6926 21.6171 21.7617 22.0316C21.8307 22.0316 21.8307 22.0316 21.8998 21.9625C21.4162 20.9953 21.3472 19.8209 21.8998 18.7846C21.9689 18.7155 21.9689 18.6464 22.038 18.5773H4.76684H2.76338H2.62521L4.83592 31.4962C5.18135 33.4305 6.83938 34.8122 8.77375 34.8122H23.3506C23.0052 34.5359 22.7288 34.1905 22.3834 33.845ZM13.057 30.9435C12.9879 30.9435 12.9879 30.9435 12.9188 30.9435H12.2971C11.5371 30.9435 10.9154 30.4599 10.7772 29.7L9.25734 22.2388C9.25734 22.1697 9.25734 22.1006 9.25734 21.9625C9.32642 21.6861 9.53368 21.4789 9.81002 21.4098C9.8791 21.4098 9.8791 21.4098 9.94818 21.4098H11.8135C12.3661 21.4098 12.8497 21.8243 12.9188 22.377L13.1952 24.864L13.8169 29.9072C13.886 30.3908 13.5406 30.8744 13.057 30.9435Z" fill="url(#paint3_linear)"></path><path d="M38.6183 27.9728C39.0328 27.9728 39.4473 27.9037 39.8618 27.9037C40.1382 27.9037 40.4145 27.8347 40.6217 27.6965C40.8981 27.4892 41.1053 27.2129 41.1053 26.8675V26.7984C41.1744 26.6602 41.1744 26.5911 41.1744 26.453C41.1744 26.2457 41.1744 26.1075 41.2435 25.9003C41.2435 25.8312 41.2435 25.8312 41.2435 25.7621C41.2435 25.624 41.2435 25.4858 41.1744 25.3476C41.1053 25.0022 41.0363 24.7259 40.7599 24.4495C40.4836 24.1732 40.2072 24.035 39.7927 24.035C39.3782 24.035 39.0328 24.035 38.6183 24.035C38.1347 24.035 37.7202 23.6896 37.5129 23.2751C37.5129 23.206 37.5129 23.1369 37.5129 23.0678C37.5129 22.7224 37.6511 22.4461 37.8584 22.1697C38.1347 21.8934 38.411 21.617 38.6874 21.3407C39.1019 20.9262 39.171 20.3735 38.8946 19.8208C38.8255 19.6827 38.7565 19.6136 38.6874 19.4754C38.4801 19.13 38.1347 18.8537 37.8584 18.5773C37.6511 18.4391 37.4439 18.301 37.2366 18.2319C36.8221 18.0937 36.4076 18.1628 36.0622 18.4391C35.924 18.5773 35.7167 18.7155 35.5786 18.8537C35.3713 19.0609 35.2331 19.2682 35.0259 19.4063C34.6805 19.6827 34.266 19.6827 33.9205 19.5445C33.6442 19.4063 33.4369 19.13 33.3679 18.8537C33.2988 18.7155 33.3679 18.5082 33.3679 18.3701C33.3679 18.0937 33.3679 17.7483 33.3679 17.472C33.3679 16.9193 33.0915 16.5048 32.6079 16.2284C32.4698 16.1594 32.2625 16.1594 32.1243 16.0903H32.0553C31.9171 16.0903 31.848 16.0903 31.7098 16.0903C31.6407 16.0903 31.6407 16.0903 31.5717 16.0903C31.5026 16.0903 31.4335 16.0903 31.4335 16.0903C31.3644 16.0903 31.2953 16.0903 31.2953 16.0903C31.2262 16.0903 31.2262 16.0903 31.1572 16.0903C31.019 16.0903 30.9499 16.0903 30.8117 16.0903H30.7426C30.6045 16.1594 30.3972 16.1594 30.2591 16.2284C29.7755 16.5048 29.4991 16.9193 29.4991 17.472C29.4991 17.7483 29.4991 18.0937 29.4991 18.3701C29.4991 18.5082 29.4991 18.7155 29.4991 18.8537C29.43 19.1991 29.2228 19.4063 28.9464 19.5445C28.5319 19.6827 28.1865 19.6827 27.8411 19.4063C27.6338 19.2682 27.4957 19.0609 27.2884 18.8537C27.1502 18.7155 27.0121 18.5082 26.8048 18.4391C26.4594 18.1628 26.0449 18.0937 25.6304 18.2319C25.4231 18.301 25.2159 18.4391 25.0086 18.5773C24.6632 18.8537 24.3869 19.13 24.1796 19.4754C24.1105 19.6136 24.0414 19.6827 23.9724 19.8208C23.696 20.3735 23.8342 20.9262 24.1796 21.3407C24.4559 21.617 24.7323 21.8934 25.0086 22.1697C25.2159 22.377 25.4231 22.7224 25.354 23.0678C25.354 23.1369 25.354 23.206 25.354 23.2751C25.1468 23.6896 24.7323 24.035 24.2487 24.035C23.8342 24.035 23.4888 24.035 23.0743 24.035C22.7288 24.035 22.3834 24.1732 22.1071 24.4495C21.8307 24.7259 21.7616 25.0022 21.6926 25.3476C21.6926 25.4858 21.6926 25.624 21.6235 25.7621C21.6235 25.8312 21.6235 25.8312 21.6235 25.9003C21.6235 26.1075 21.6235 26.2457 21.6926 26.453C21.6926 26.5911 21.7616 26.6602 21.7616 26.7984V26.8675C21.8307 27.2129 21.9689 27.4892 22.2452 27.6965C22.4525 27.8347 22.7288 27.9037 23.0052 27.9037C23.4197 27.9037 23.8342 27.9037 24.2487 27.9728C24.6632 27.9728 25.0086 28.1801 25.2159 28.5255C25.4231 28.94 25.4922 29.4927 25.1468 29.9072C24.8705 30.1835 24.6632 30.4599 24.3869 30.7362C24.2487 30.8744 24.1105 31.0816 24.0414 31.358C23.9033 31.7725 23.9033 32.187 24.2487 32.5324C24.5941 32.9469 24.9395 33.2233 25.285 33.5687C25.4231 33.7069 25.5613 33.7759 25.7686 33.7759C26.1831 33.845 26.5976 33.7069 26.943 33.4305C27.2193 33.1542 27.4957 32.8778 27.8411 32.6015C27.9793 32.4633 28.1174 32.3942 28.2556 32.3252C28.5319 32.2561 28.7392 32.2561 29.0155 32.3252C29.0155 32.3252 29.0155 32.3252 29.0846 32.3252C29.361 32.5324 29.5682 32.8088 29.6373 33.1542C29.6373 33.2923 29.6373 33.4305 29.6373 33.5687C29.6373 33.9141 29.6373 34.1904 29.6373 34.5359C29.6373 35.1576 29.9827 35.5031 30.5354 35.7103C30.8808 35.8485 31.2262 35.9176 31.6407 35.9176C31.9862 35.9176 32.4007 35.8485 32.7461 35.7103C33.2988 35.5031 33.5751 35.0885 33.6442 34.5359C33.6442 34.1904 33.6442 33.9141 33.6442 33.5687C33.6442 33.4305 33.6442 33.2923 33.6442 33.1542C33.7133 32.8088 33.9205 32.5324 34.1969 32.3252C34.1969 32.3252 34.1969 32.3252 34.266 32.3252C34.335 32.3252 34.4041 32.3252 34.4732 32.2561L33.3679 31.2198C32.8152 31.358 32.2625 31.4961 31.7098 31.4961C28.6701 31.4961 26.2521 29.0782 26.2521 26.0385C26.2521 22.9987 28.6701 20.5808 31.7098 20.5808C34.7496 20.5808 37.1675 22.9987 37.1675 26.0385C37.1675 26.5221 37.0984 27.0056 36.9603 27.4202L38.0656 28.4564C37.9965 28.111 38.2729 27.9728 38.6183 27.9728Z" fill="#161C2D"></path><path d="M39.4473 32.0488C39.3782 31.8416 39.2401 31.6343 39.0328 31.427C38.0656 30.4599 37.0985 29.5618 36.0622 28.5946C35.7858 28.3873 35.5786 28.111 35.3023 27.9037L35.2332 27.8346C35.2332 27.6965 35.2332 27.5583 35.2332 27.4201C35.2332 27.282 35.3023 27.2129 35.3023 27.0747C35.5095 26.3148 35.5095 25.4858 35.3023 24.7258C35.0259 23.8968 34.5423 23.206 33.7824 22.6533C33.0915 22.1697 32.4007 21.8934 31.5717 21.8934C31.1572 21.8934 30.7427 21.9625 30.3972 22.1006C30.3972 22.1697 30.4663 22.1697 30.4663 22.2388C30.9499 22.7224 31.5026 23.206 31.9862 23.6896C32.1244 23.8277 32.2625 23.9659 32.3316 24.1041C32.608 24.6568 32.677 25.2094 32.4698 25.7621C32.3316 26.1075 32.0553 26.3839 31.848 26.5911C31.3644 27.0056 30.8808 27.1438 30.2591 27.0056C29.9137 26.9365 29.5682 26.7984 29.2919 26.522C28.9465 26.1766 28.601 25.9003 28.2556 25.5549C28.0484 25.3476 27.9102 25.2094 27.7029 25.0022L27.6339 24.9331C27.5648 24.9331 27.4957 25.0022 27.4957 25.0713C27.4957 25.2785 27.4266 25.4858 27.4266 25.693C27.4266 26.2457 27.4957 26.7293 27.7029 27.282C28.0484 28.111 28.6701 28.8018 29.4301 29.2854C30.3282 29.8381 31.2953 29.9763 32.3316 29.769C32.608 29.6999 32.8152 29.6308 33.0225 29.5618C33.2297 29.4927 33.437 29.4927 33.6442 29.6999C33.8515 29.9072 34.1278 30.1144 34.3351 30.3217C35.095 31.0125 35.8549 31.7725 36.5458 32.4633C36.8221 32.7397 37.0985 33.016 37.4439 33.2923C37.6511 33.4305 37.8584 33.5687 38.1347 33.5687C38.4111 33.5687 38.6874 33.5687 38.8947 33.4305C39.1019 33.2923 39.3092 33.0851 39.4473 32.8778C39.5855 32.8087 39.5855 32.3942 39.4473 32.0488ZM38.1347 33.1542C37.7893 33.1542 37.4439 32.8778 37.4439 32.4633C37.4439 32.0488 37.7202 31.7725 38.1347 31.7725C38.4801 31.7725 38.8256 31.9797 38.8256 32.3942C38.8256 32.8087 38.5492 33.1542 38.1347 33.1542Z" fill="url(#paint4_linear)"></path><path d="M66.5285 19.5445C65.3541 19.0609 64.0415 18.7155 62.4525 18.4392C60.9326 18.1628 59.7582 17.8865 58.9292 17.6793C58.1693 17.472 57.4784 17.1266 57.0639 16.7121C56.6494 16.2976 56.3731 15.7449 56.3731 15.054C56.3731 14.0178 56.7185 13.2578 57.5475 12.7052C58.3074 12.1525 59.4128 11.8071 60.7945 11.8071C62.1762 11.8071 63.3506 12.1525 64.2487 12.9124C65.1468 13.6033 65.6304 14.5704 65.7686 15.7449V15.9521H70.19V15.6758C70.1209 14.1559 69.7064 12.8433 68.8774 11.6689C68.0484 10.4945 66.943 9.59635 65.5613 8.90551C64.1796 8.21466 62.5907 7.93832 60.7945 7.93832C59.0674 7.93832 57.5475 8.21466 56.2349 8.83642C54.9223 9.45819 53.8169 10.3563 53.057 11.4616C52.2971 12.567 51.9516 13.8796 51.9516 15.3304C51.9516 16.8502 52.2971 18.1628 53.057 19.13C53.8169 20.0972 54.715 20.7881 55.8895 21.2717C56.9948 21.7552 58.3765 22.1007 59.9655 22.377C61.4853 22.6534 62.6598 22.9297 63.5579 23.1369C64.3869 23.3442 65.0086 23.6896 65.4922 24.1732C65.9067 24.5877 66.1831 25.1404 66.1831 25.9003C66.1831 26.9366 65.7686 27.7656 64.9396 28.3183C64.1105 28.9401 62.9361 29.2164 61.4853 29.2164C59.8964 29.2164 58.5838 28.8019 57.5475 27.9729C56.5803 27.1439 56.0276 26.0385 55.8895 24.7259V24.5186L51.468 24.4496V24.7259C51.468 26.3839 51.9516 27.8347 52.7807 29.0782C53.6097 30.3217 54.7841 31.358 56.304 32.0489C57.7548 32.7397 59.551 33.0851 61.4853 33.0851C63.2124 33.0851 64.8705 32.7397 66.2522 32.1179C67.6339 31.4962 68.7392 30.529 69.5682 29.3546C70.3282 28.1801 70.7427 26.8675 70.7427 25.3477C70.7427 23.8278 70.3972 22.5843 69.6373 21.6171C68.6701 20.719 67.7029 20.0281 66.5285 19.5445Z" fill="#161C2D"></path><path d="M82.6252 14.4323C80.4145 14.4323 78.6874 15.1922 77.3057 16.7121V8.14557L73.0916 9.52726V32.8779H77.3057V23.6896C77.3057 21.9625 77.7202 20.6499 78.4801 19.6827C79.3092 18.7155 80.3454 18.2319 81.7271 18.2319C83.0397 18.2319 84.0069 18.6464 84.6978 19.4754C85.3886 20.3045 85.734 21.548 85.734 23.1369V32.947H90.0173V22.8606C90.0173 19.959 89.3264 17.8174 87.9447 16.4357C86.6321 15.1231 84.8359 14.4323 82.6252 14.4323Z" fill="#161C2D"></path><path d="M106.39 15.6067C105.009 14.8468 103.351 14.4323 101.554 14.4323C99.7582 14.4323 98.1002 14.8468 96.7185 15.6067C95.3368 16.3667 94.2314 17.472 93.4715 18.9228C92.7116 20.3045 92.2971 21.9625 92.2971 23.7587C92.2971 25.624 92.7116 27.2129 93.4715 28.6637C94.2314 30.0454 95.3368 31.1508 96.7185 31.9107C98.1002 32.6706 99.7582 33.0851 101.554 33.0851C103.351 33.0851 105.009 32.6706 106.39 31.9107C107.772 31.1508 108.877 30.0454 109.706 28.6637C110.466 27.282 110.881 25.624 110.881 23.7587C110.881 21.9625 110.466 20.3045 109.706 18.9228C108.877 17.5411 107.772 16.4357 106.39 15.6067ZM101.554 29.3546C100.035 29.3546 98.8601 28.871 97.962 27.8347C97.0639 26.7984 96.5803 25.4167 96.5803 23.7587C96.5803 22.1007 97.0639 20.719 97.962 19.6827C98.8601 18.6464 100.035 18.1629 101.554 18.1629C103.074 18.1629 104.249 18.6464 105.147 19.6827C106.045 20.719 106.529 22.1007 106.529 23.7587C106.529 25.4167 106.045 26.7984 105.147 27.8347C104.249 28.871 103.074 29.3546 101.554 29.3546Z" fill="#161C2D"></path><path d="M127.461 15.6067C126.149 14.8468 124.698 14.5014 123.04 14.5014C120.76 14.5014 118.895 15.3304 117.444 16.9884L117.029 14.7086L113.299 16.0903V39.8554L117.513 38.4737V30.8744C118.066 31.4962 118.687 31.9798 119.447 32.3252C120.415 32.8088 121.658 33.0851 122.971 33.0851C124.629 33.0851 126.149 32.6706 127.392 31.9107C128.705 31.1508 129.741 30.0454 130.432 28.6637C131.192 27.282 131.537 25.624 131.537 23.8278C131.537 21.9625 131.192 20.3045 130.432 18.9228C129.81 17.4029 128.774 16.2976 127.461 15.6067ZM122.418 18.1628C123.869 18.1628 125.043 18.6464 125.941 19.6827C126.839 20.719 127.323 22.1007 127.323 23.7587C127.323 25.4167 126.839 26.7984 125.941 27.8347C125.043 28.871 123.869 29.4236 122.418 29.4236C120.967 29.4236 119.793 28.94 118.895 27.8347C117.997 26.7984 117.513 25.4167 117.513 23.6896C117.513 22.0316 117.997 20.6499 118.895 19.6827C119.793 18.6464 120.898 18.1628 122.418 18.1628Z" fill="#161C2D"></path><path d="M138.998 22.3079H148.739V18.3701H138.998V12.2216H150.812V8.14557H134.508V32.8779H151.226V28.8019H138.998V22.3079Z" fill="#161C2D"></path><path d="M163.178 14.4323C160.898 14.4323 159.033 15.1922 157.651 16.643L157.306 14.6395L153.575 16.0212V32.8779H157.789V23.6896C157.789 21.9625 158.204 20.5808 158.964 19.6136C159.793 18.6464 160.829 18.1629 162.211 18.1629C163.523 18.1629 164.49 18.5774 165.181 19.4064C165.872 20.2354 166.218 21.4789 166.218 23.0679V32.8779H170.501V22.8606C170.501 19.9591 169.81 17.8174 168.428 16.4357C167.116 15.1231 165.32 14.4323 163.178 14.4323Z" fill="#161C2D"></path><path d="M187.012 16.9884C186.459 16.2976 185.769 15.6758 184.94 15.2613C183.972 14.7086 182.729 14.4323 181.347 14.4323C179.689 14.4323 178.238 14.8468 176.926 15.6067C175.613 16.3667 174.577 17.472 173.817 18.8537C173.057 20.2354 172.712 21.8934 172.712 23.6896C172.712 25.5549 173.057 27.2129 173.817 28.5946C174.577 29.9763 175.613 31.0817 176.857 31.7725C178.169 32.5325 179.62 32.8779 181.278 32.8779C183.627 32.8779 185.492 32.0489 186.805 30.529V31.7725C186.805 34.9504 185.216 36.4703 181.969 36.4703C180.725 36.4703 179.689 36.1939 178.929 35.7104C178.169 35.2268 177.686 34.5359 177.478 33.5687L177.409 33.3615H173.126V33.6378C173.264 35.6413 174.162 37.2302 175.751 38.4046C177.271 39.51 179.275 40.0627 181.762 40.0627C184.87 40.0627 187.288 39.3718 188.808 37.9211C190.328 36.5394 191.088 34.4668 191.088 31.9107V14.6395H187.358L187.012 16.9884ZM181.969 29.2855C180.518 29.2855 179.344 28.8019 178.446 27.7656C177.547 26.7293 177.064 25.3477 177.064 23.6896C177.064 22.0316 177.547 20.6499 178.446 19.6136C179.344 18.5774 180.518 18.0938 181.969 18.0938C183.42 18.0938 184.594 18.5774 185.492 19.6136C186.39 20.6499 186.874 22.0316 186.874 23.6896C186.874 25.3477 186.39 26.6603 185.492 27.6965C184.663 28.8019 183.489 29.2855 181.969 29.2855Z" fill="#161C2D"></path><path d="M198.48 14.6395H194.266V32.8779H198.48V14.6395Z" fill="#161C2D"></path><path d="M196.339 7.5929C195.648 7.5929 195.026 7.80015 194.542 8.28374C194.059 8.76733 193.782 9.3891 193.782 10.0799C193.782 10.7708 194.059 11.3926 194.542 11.8761C195.026 12.3597 195.648 12.567 196.339 12.567C197.029 12.567 197.651 12.3597 198.135 11.8761C198.618 11.3926 198.895 10.7708 198.895 10.0799C198.895 9.3891 198.618 8.76733 198.135 8.28374C197.651 7.80015 197.098 7.5929 196.339 7.5929Z" fill="url(#paint5_linear)"></path><path d="M211.192 14.4323C208.912 14.4323 207.047 15.1922 205.665 16.643L205.32 14.6395L201.589 16.0212V32.8779H205.803V23.6896C205.803 21.9625 206.218 20.5808 206.978 19.6136C207.807 18.6464 208.843 18.1629 210.225 18.1629C211.537 18.1629 212.504 18.5774 213.195 19.4064C213.886 20.2354 214.231 21.4789 214.231 23.0679V32.8779H218.515V22.8606C218.515 19.9591 217.824 17.8174 216.442 16.4357C215.13 15.1231 213.402 14.4323 211.192 14.4323Z" fill="#161C2D"></path><path d="M237.444 18.5774C236.684 17.2647 235.579 16.2285 234.266 15.5376C232.953 14.8468 231.364 14.5014 229.637 14.5014C227.91 14.5014 226.39 14.9159 225.009 15.6758C223.696 16.4357 222.591 17.5411 221.9 18.9919C221.14 20.3736 220.794 22.0316 220.794 23.8969C220.794 25.7622 221.209 27.3511 221.969 28.7328C222.729 30.1145 223.834 31.2198 225.216 31.9798C226.598 32.7397 228.256 33.1542 230.19 33.1542C232.332 33.1542 234.197 32.5324 235.648 31.358C237.098 30.1836 237.997 28.6637 238.342 26.7984L238.411 26.5221H234.197L234.128 26.7293C233.921 27.6274 233.437 28.3874 232.677 28.871C231.917 29.3546 231.019 29.6309 229.914 29.6309C228.532 29.6309 227.427 29.2164 226.598 28.3874C225.769 27.5584 225.285 26.3839 225.216 24.9331H238.48V24.7259C238.549 24.2423 238.618 23.7587 238.618 23.2751C238.618 21.4098 238.204 19.8209 237.444 18.5774ZM225.423 21.548C225.561 20.5117 226.045 19.6827 226.805 18.9919C227.634 18.301 228.67 17.9556 229.775 17.9556C231.019 17.9556 232.055 18.301 232.884 18.9919C233.644 19.6136 234.128 20.5117 234.266 21.548H225.423Z" fill="#161C2D"></path><defs><linearGradient id="paint0_linear" x1="13.6691" y1="0.121684" x2="13.6691" y2="9.85566" gradientUnits="userSpaceOnUse"><stop stop-color="#999999"></stop><stop offset="1" stop-color="#101010"></stop></linearGradient><linearGradient id="paint1_linear" x1="26.5772" y1="0.0867075" x2="26.5772" y2="9.79293" gradientUnits="userSpaceOnUse"><stop stop-color="#999999"></stop><stop offset="1" stop-color="#101010"></stop></linearGradient><linearGradient id="paint2_linear" x1="0" y1="15.3374" x2="40.2779" y2="15.3374" gradientUnits="userSpaceOnUse"><stop stop-color="#2851F3"></stop><stop offset="1" stop-color="#648DFF"></stop></linearGradient><linearGradient id="paint3_linear" x1="13" y1="30" x2="13" y2="19" gradientUnits="userSpaceOnUse"><stop stop-color="#2851F3"></stop><stop offset="1" stop-color="#648DFF"></stop></linearGradient><linearGradient id="paint4_linear" x1="27.4266" y1="27.7434" x2="39.5932" y2="27.7434" gradientUnits="userSpaceOnUse"><stop stop-color="#2851F3"></stop><stop offset="1" stop-color="#648DFF"></stop></linearGradient><linearGradient id="paint5_linear" x1="193.782" y1="10.0852" x2="198.912" y2="10.0852" gradientUnits="userSpaceOnUse"><stop stop-color="#2851F3"></stop><stop offset="1" stop-color="#648DFF"></stop></linearGradient></defs></svg>