<svg width="401" height="122" viewBox="0 0 401 122" xmlns="http://www.w3.org/2000/svg" xmlns:xlink="http://www.w3.org/1999/xlink"><title>Group</title><g id="Page-1" stroke="none" stroke-width="1" fill="none" fill-rule="evenodd"><g id="Color-logo-with-background-Copy" transform="translate(0.764706, 0.764706)" fill-rule="nonzero"><g id="Group"><g id="Group" fill="#65d3a7"><path d="M123.159375 72.9888264 117.121112 66.9505635C114.726994 64.5564453 110.574364 64.5564453 108.180246 66.9505635L75.5524397 99.5783698 71.0608196 116.061768 69.9591015 117.163486C69.1328129 117.989775 69.1328129 119.303362 69.9379146 120.150837L69.9167277 120.193211 69.9591015 120.172024C70.3616524 120.574575 70.9125114 120.786444 71.4421836 120.786444 71.9930427 120.786444 72.5227148 120.574575 72.9464526 120.172024L74.0481707 119.070306l16.4833983-4.49162 32.606619-32.6066195c2.478866-2.5000527 2.478866-6.5043743.0211869999999976-8.9832401zM80.4466107 100.658901 102.141983 78.9635285 111.125223 87.9467687 89.4510377 109.663328 80.4466107 100.658901zM78.5397908 104.74797 85.3619685 111.570148l-9.385791 2.563613L78.5397908 104.74797zM120.150837 78.9423417 114.133761 84.9594176 105.150521 75.9761775l6.017076-6.017076C111.951512 69.1751867 113.32866 69.1751867 114.112574 69.9591015l6.038263 6.0382628C120.977126 76.8024661 120.977126 78.1372399 120.150837 78.9423417z" id="Shape"/><path d="M76.2727939 67.798039H95.3409923V44.4924631H76.2727939 72.0354164 57.2045954 52.967218 38.1363969 33.8990195 14.830821V63.5606616 67.798039 82.62886 86.8662375 105.934436H33.8990195h4.2373774H57.2045954V86.8662375H76.2727939V67.798039zm0-19.0681985h14.830821V63.5606616H76.2727939V48.7298405zm-38.136397.0H52.967218V63.5606616H38.1363969V48.7298405zm-19.0681984.0h14.830821V63.5606616H19.0681985V48.7298405zm0 19.0681985h14.830821V82.62886H19.0681985V67.798039zm14.830821 33.89902H19.0681985V86.8662375h14.830821V101.697059zm19.0681985.0H38.1363969V86.8662375H52.967218V101.697059zm0-19.068199H38.1363969V67.798039H52.967218V82.62886zM72.0338846 67.798039V82.62886H57.2030635V67.798039H72.0338846zM72.0354164 48.7298405V63.5606616H57.2045954V48.7298405h14.830821z" id="Shape"/><path d="M55.0859067 116.52788H4.23737744V33.8990195H105.934436V61.4419728c0 1.1652788.953409999999991 2.1186888 2.11868899999999 2.1186888C109.218403 63.5606616 110.171813 62.6072516 110.171813 61.4419728V31.7803308 10.5934436C110.171813 9.4281648 109.218403 8.47475488 108.053125 8.47475488H97.4596811V2.11868872C97.4596811.953409923 96.5062711.0 95.3409923.0H80.5101713C79.3448925.0 78.3914826.953409923 78.3914826 2.11868872V8.47475488H31.7803308V2.11868872C31.7803308.953409923 30.8269209.0 29.6616421.0H14.830821c-1.1652788.0-2.1186887.953409923-2.1186887 2.11868872V8.47475488H2.11868872C.953409923 8.47475488.0 9.4281648.0 10.5934436V31.7803308 118.646568c0 1.165279.953409923 2.118689 2.11868872 2.118689H55.0859067c1.1652788.0 2.1186887-.953410000000005 2.1186887-2.118689S56.2511855 116.52788 55.0859067 116.52788zM82.62886 4.23737744H93.2223036V10.5934436v6.3560662H82.62886V10.5934436 4.23737744zm-65.6793502.0H27.5429533V10.5934436v6.3560662H16.9495098V10.5934436 4.23737744zM4.23737744 12.7121323H12.7121323v6.3560662c0 1.1652788.953409900000001 2.1186887 2.1186887 2.1186887H29.6616421c1.1652788.0 2.1186887-.953409900000001 2.1186887-2.1186887V12.7121323H78.3914826v6.3560662c0 1.1652788.953409899999997 2.1186887 2.11868869999999 2.1186887h14.830821C96.5062711 21.1868872 97.4596811 20.2334773 97.4596811 19.0681985V12.7121323H105.934436V29.6616421H4.23737744V12.7121323z" id="Shape"/></g><g id="SvgjsG10836" transform="translate(150.000003, 12.500001)" fill="#000"><path d="M-434529506e-23 64.2857064C.195694692 62.1330648.864318224 59.9804232 2.0058706 57.8277816 3.14742297 55.67514 4.50097792 53.9138877 6.06653546 52.5440249c6.97977734 4.2400516 13.60078114 6.3600775 19.86301124 6.3600775 2.7397257.0 4.7455963-.619699900000001 6.0176118-1.8590996s1.9080233-2.7723415 1.9080233-4.5988253c0-3.0658835-2.0547943-5.4794514-6.1643828-7.2407036L16.1448121 40.3131066c-4.5009779-2.0221785-7.95825081-4.4520542-10.37181868-7.2896273-2.41356787-2.837573-3.6203518-6.4416169-3.6203518-10.8121317.0-3.000652.60339196-5.7403777 1.8101759-8.2191771 1.20678393-2.4787994 2.9028046-4.63144105 5.088062-6.45792485C11.2361369 5.70776186 13.8290916 4.28897534 16.8297435 3.2778861c3.000652-1.01108925 6.3274618-1.51663387 9.9804293-1.51663387 7.3059352.0 14.677102 1.85909958 22.1135003 5.57729873C48.5975153 12.3613814 46.836263 16.2752752 43.6399164 19.0802325c-6.6536196-3.1963466-12.5244603-4.79452-17.6125223-4.79452-2.6092626.0-4.5662095.587084099999998-5.8708408 1.7612523-1.3046313 1.1741681-1.9569469 2.5114152-1.9569469 4.0117412.0 2.544031 1.9243311 4.5988252 5.7729934 6.1643828l11.7416815 4.9902146C40.6718802 33.3007135 44.3737715 35.9752076 46.8199551 39.2367858c2.4461837 3.2615782 3.6692755 7.0450089 3.6692755 11.3502922C50.4892306 53.6529615 49.9347623 56.4579187 48.8258257 59.0019497c-1.1089366 2.544031-2.7560336 4.7455963-4.941291 6.6046959C41.6992773 67.4657452 38.9758595 68.9171475 35.7142813 69.9608525 32.4527031 71.0045575 28.6366566 71.52641 24.2661418 71.52641c-8.4801033.0-16.56881724-2.4135678-24.2661418-7.2407036zM87.4755275 21.1350268C87.8669168 22.9615106 88.0626115 24.7879944 88.0626115 26.6144782 88.0626115 28.4409619 87.8669168 30.23483 87.4755275 31.9960822L75.8316933 31.8003875V54.3052771C75.8316933 57.3711606 77.2667877 58.9041024 80.1369765 58.9041024h5.4794514C86.4644382 61.2524387 86.8884434 63.4050803 86.8884434 65.3620272 86.8884434 67.3189741 86.7579802 68.7214528 86.497054 69.5694631 81.6699182 70.2217787 77.2341719 70.5479366 73.1898149 70.5479366c-8.2191771.0-12.3287656-4.5335937-12.3287656-13.6007811V31.8982348L53.2289563 31.9960822C52.7723354 30.3652931 52.5440249 28.587733 52.5440249 26.6634018c0-1.9243311.228310500000006-3.7671228.684931400000004-5.528375L60.8610493 21.3307215V15.6555754c0-3.3268098.6360077-5.69145398 1.9080232-7.09393261 1.2720155-1.40247863 3.4083493-2.10371794 6.4090012-2.10371794H75.1467618L75.8316933 7.14285627V21.3307215L87.4755275 21.1350268zM92.6614368 28.277883C92.9875946 26.9732518 93.6072945 25.5218495 94.5205364 23.9236761 95.4337783 22.3255028 96.3470202 21.1676425 97.2602621 20.4500953 103.261566 20.9067163 107.436386 23.8747525 109.784722 29.3542038 112.263522 23.4833631 116.340495 20.5479427 122.015641 20.5479427c1.69602.0 3.848662.2609262 6.45792400000001.782778799999999C128.473565 23.3528999 128.1311 25.7501599 127.446168 28.5225014 126.761237 31.2948429 125.831687 33.6594871 124.657519 35.616434 123.548582 35.2250446 121.885178 34.8988868 119.667304 34.6379605c-3.261578.0-5.936072 1.6634049-8.023482 4.9902147V70.0586998C109.49118 70.4500953 106.963457 70.6457839 104.060653 70.6457839 101.157848 70.6457839 98.5975091 70.4500953 96.3796359 70.0586998V38.454007C96.3796359 33.5616397 95.1402362 30.1695984 92.6614368 28.277883zm61.3502862 4.2074359V70.0586998C152.902786 70.2543945 151.696002 70.4011655 150.391371 70.4990129 149.08674 70.5968602 147.749493 70.6457839 146.37963 70.6457839 145.009767 70.6457839 143.656212 70.5968602 142.318965 70.4990129 140.981718 70.4011655 139.758626 70.2543945 138.649689 70.0586998V37.6712283C138.649689 33.8877975 137.116748 31.9960822 134.050864 31.9960822H132.583154C132.191765 30.7566825 131.99607 29.028046 131.99607 26.8101728c0-2.1526416.195695000000001-3.9791254.587084000000004-5.4794513C134.279175 21.2002583 135.844732 21.0861031 137.279827 20.9882557 138.714921 20.8904084 140.019552 20.8414847 141.19372 20.8414847H143.346362c3.32680999999999.0 5.936072 1.0437051 7.827788 3.1311151C153.065865 26.0600099 154.011723 28.8975829 154.011723 32.4853189zM136.888437 1.56555754C138.780153.521852513 141.226336.0 144.226988.0 147.292872.0 149.673824.521852513 151.369844 1.56555754 152.152623 3.32680977 152.544013 5.21852513 152.544013 7.24070361 152.544013 9.2628821 152.152623 11.1545975 151.369844 12.9158497 149.478129 13.8943232 146.99933 14.3835599 143.933446 14.3835599 140.867563 14.3835599 138.519226 13.8943232 136.888437 12.9158497 136.105658 11.1545975 135.714269 9.2628821 135.714269 7.24070361 135.714269 5.21852513 136.105658 3.32680977 136.888437 1.56555754zM183.463774 58.4148656l8.512719-37.0841441C193.802977 20.9393321 195.857771 20.7436374 198.140876 20.7436374c2.804957.0 5.25114100000002.391389399999998 7.338551 1.1741681L205.968664 22.602737C199.315044 46.8688788 194.78145 62.6875331 192.367883 70.0586998 189.041073 70.4500892 185.534876 70.6457839 181.849293 70.6457839 178.163709 70.6457839 175.538139 70.1402393 173.972581 69.12915 172.407024 68.1180608 171.20024 66.1774218 170.35223 63.307233L158.610548 22.4070423c3.196347-1.3698629 6.03392-2.0547943 8.512719-2.0547943C169.602067 20.352248 171.526398 20.8904084 172.896261 21.9667292 174.266123 23.04305 175.277213 24.8858417 175.929528 27.4951043l4.403131 18.2974537C180.658817 47.0319577 181.376364 50.9784673 182.485301 57.6320869 182.550532 58.1539394 182.87669 58.4148656 183.463774 58.4148656zm65.26418-7.8277876H223.189797C223.32026 53.5224983 224.070423 55.8056031 225.440286 57.4363922 226.810148 59.0671813 229.060637 59.8825758 232.191752 59.8825758 233.75731 59.8825758 235.567486 59.6542654 237.62228 59.1976444 239.677074 58.7410235 242.041719 57.9908605 244.716213 56.9471555 246.868854 59.1650286 248.206101 62.1656806 248.727954 65.9491113c-5.218525 3.7181992-11.611219 5.5772987-19.17808 5.5772987C225.440286 71.52641 221.999321 70.8740944 219.226979 69.5694631 216.454638 68.2648318 214.204149 66.438348 212.475512 64.0900117 210.746876 61.7416754 209.523784 58.9693339 208.806237 55.7729873 208.088689 52.5766407 207.729916 49.086752 207.729916 45.3033213 207.729916 41.6503537 208.170229 38.2746202 209.050855 35.1761209c.880625999999978-3.0984993 2.217873-5.7893013 4.011741-8.072406C214.856464 24.8206101 217.139569 23.0267421 219.91191 21.7221108 222.684252 20.4174796 225.929522 19.7651639 229.647721 19.7651639c3.13111500000002.0 5.952381.521852499999998 8.463796 1.5655576C240.622932 22.3744265 242.759266 23.8095209 244.520518 25.6360047 246.28177 27.4624885 247.635325 29.6477459 248.581183 32.1917769 249.527041 34.7358079 249.999969 37.5081494 249.999969 40.5088013 249.999969 44.4879267 249.575964 47.8473523 248.727954 50.587078zM223.091949 40.0195646h12.91585V38.9432438C236.007799 36.5296759 235.469638 34.5401132 234.393318 32.9745556 233.316997 31.4089981 231.702516 30.6262193 229.549874 30.6262193 227.462464 30.6262193 225.913214 31.3600744 224.902125 32.8277846S223.287644 36.6927548 223.091949 40.0195646z" id="Shape"/></g><g id="SvgjsG10837" transform="translate(150.000001, 96.249999)" fill="#65d3a7"><path d="M6.43979056.0C7.3123909.0 8.12975565.162879581 8.89179753.488656194S10.2792321 1.29144851 10.7678883 1.91972076L9.37172772 2.98429318C8.6154799 2.04188481 7.62076787 1.57068062 6.38743454 1.57068062c-1.33795812.0-2.44031413.47701571-3.30715532 1.43106457-.86684118.95404886-1.30017451 2.15235602-1.30017451 3.59511343.0 1.39616055.42757417 2.54799301 1.28272251 3.45549738C3.91797556 10.9598604 5.026178 11.4136125 6.38743454 11.4136125S8.82495634 10.8609598 9.61605582 9.75567187L11.0296684 10.8202443C10.5410122 11.4717801 9.88944151 11.9953752 9.0750436 12.3909249c-.814397900000001.3955498-1.72190226.5933683-2.72251308.5933683-1.18673647.0-2.26300174-.2879582-3.22862128-.8638744S1.39616055 10.7533158.837696333 9.74694587C.279232111 8.74057589 387512398e-23 7.68464221 387512398e-23 6.57940661c0-1.90802792.599179753999996-3.48167538 1.79755671-4.72076787C2.99593367.619546246 4.54328096.0 6.43979056.0zM23.1867364.174520069e-4c1.8382199.0 3.3712042.6108027899931 4.5986038 1.8324607279931 1.2273997 1.22165794 1.8411868 2.7748691 1.8411868 4.65968585.0 1.19834206-.273420599999998 2.29493891-.8202444 3.28970331C28.2594589 10.7766317 27.4886561 11.5590052 26.4938917 12.1291623c-.994764399999998.570157-2.0972077.8551483-3.3071553.8551483-1.1983421.0-2.2919721-.282146600000001-3.2809773-.8464223C18.9167539 11.5736125 18.1431064 10.7940837 17.5846422 9.79931934 17.026178 8.80455495 16.7469458 7.70211167 16.7469458 6.49216403c0-1.83821989.602094300000001-3.37993018 1.8062828-4.62478184C19.757417.622530539 21.3019197.174520069e-4 23.1867364.174520069e-4zM18.5270506 6.49216403c0 1.39616055.4362827 2.56544502 1.3089005 3.50785337.8726178.9424084 1.9895288 1.4136126 3.3507853 1.4136126 1.3379581.0 2.4490401-.465392699999999 3.3333333-1.3961606C27.4043629 9.08670154 27.8464223 7.91153575 27.8464223 6.49216403c0-1.40776614-.436300200000002-2.57993018-1.3089006-3.5165794C25.6649214 2.03893542 24.5422338 1.57069808 23.1692844 1.57069808c-1.3263525.0-2.4315881.46539266-3.3158813 1.39616055C18.9691099 3.89762652 18.5270506 5.07279231 18.5270506 6.49216403zM38.6945898.314153577 45.5008725 10.4712216H45.5357765V.314153577h1.6753926V12.6701745H45.0820243L38.2059336 2.51310645H38.1710296V12.6701745H36.4956369V.314153577h2.1989529zm24.3909248.0V1.8848342H59.1064571V12.6701745H57.4310644V1.8848342H53.4520068V.314153577h9.6335078zm14.2164049.0V1.8848342H71.001745V5.56720766H76.8656193V7.13788829H71.001745V11.0994939h6.6143106v1.5706806H69.3263523V.314153577h7.9755672zm9.34729490000001.0L93.4554971 10.4712216H93.4904011V.314153577h1.6753927V12.6701745H93.0366489L86.1605582 2.51310645H86.1256542V12.6701745H84.4502615V.314153577H86.6492144zm24.3909246.0V1.8848342h-3.979057V12.6701745h-1.675393V1.8848342h-3.979058V.314153577H111.040139zM132.26527.0C133.13787.0 133.955235.162879581 134.717277.488656194S136.104712 1.29144851 136.593368 1.91972076L135.197207 2.98429318C134.440959 2.04188481 133.446247 1.57068062 132.212914 1.57068062 130.874956 1.57068062 129.7726 2.04769633 128.905759 3.00174519 128.038918 3.95579405 127.605584 5.15410121 127.605584 6.59685862c0 1.39616055.427573999999993 2.54799301 1.282723 3.45549738C129.743455 10.9598604 130.851658 11.4136125 132.212914 11.4136125 133.574171 11.4136125 134.650436 10.8609598 135.441535 9.75567187L136.855148 10.8202443C136.366492 11.4717801 135.714921 11.9953752 134.900523 12.3909249 134.086125 12.7864747 133.178621 12.9842932 132.17801 12.9842932c-1.186736.0-2.263002-.2879582-3.228621-.8638744C127.983769 11.5445026 127.22164 10.7533158 126.663176 9.74694587 126.104712 8.74057589 125.82548 7.68464221 125.82548 6.57940661c0-1.90802792.599179000000007-3.48167538 1.797556-4.72076787C128.821413.619546246 130.368761.0 132.26527.0zm16.467714.314153577L154.020942 12.6701745H152.066317l-1.239092-3.05410123h-5.881327L143.724258 12.6701745H141.769633L147.214659.314153577H148.732984zM145.539267 8.15010469H150.216404L147.91274 2.47820244H147.877836L145.539267 8.15010469zM161.762652.314153577V11.0994939H167.434554v1.5706806H160.08726V.314153577H161.762652zm19.818499.0V1.8848342h-6.300174V5.56720766H181.144851V7.13788829H175.280977V11.0994939H181.895287v1.5706806h-8.289703V.314153577H181.581151zm9.347295.0L197.734729 10.4712216H197.769633V.314153577H199.445026V12.6701745H197.315881L190.43979 2.51310645H190.404886V12.6701745H188.729493V.314153577H190.928446zm20.272251.0C212.515444.314153577 213.655671.584659684 214.621291 1.1256719 215.58691 1.66668411 216.325741 2.40839441 216.837696 3.35080278 217.34965 4.29321116 217.605584 5.34033157 217.605584 6.49216403 217.605584 7.64399649 217.32054 8.69408374 216.750436 9.64225128 216.180331 10.5904188 215.383333 11.3322164 214.359511 11.8673822S212.195462 12.6701745 210.938917 12.6701745H206.802792V.314153577H211.200697zM210.677137 11.0994939c.942409000000026.0 1.80628300000001-.1832636 2.591623-.5497557C214.054101 10.183246 214.676526 9.65680625 215.136125 8.97033156S215.825479 7.45785338 215.825479 6.49214658c0-1.39616056-.433385000000015-2.513089-1.300174-3.35078533C213.658516 2.30366491 212.509598 1.88481675 211.078533 1.88481675H208.478184V11.0994939H210.677137zM229.867364.314153577 235.155322 12.6701745H233.200697l-1.239092-3.05410123h-5.881326L224.858638 12.6701745H222.904013L228.349039.314153577h1.518325zM226.673647 8.15010469H231.350785L229.04712 2.47820244H229.012216L226.673647 8.15010469zM245.65445.314153577C246.864484.314153577 247.812739.616649213 248.499127 1.22165794 249.185514 1.82666666 249.528795 2.67602093 249.528795 3.76965095 249.528795 4.59570679 249.246648 5.31703314 248.682373 5.93369981 248.118097 6.55036647 247.393804 6.91685862 246.509598 7.03317624H246.492146L249.999999 12.6701745H247.905758L244.764397 7.22514832H242.897032V12.6701745H241.22164V.314153577H245.65445zM245.165793 5.75917974C246.038394 5.75917974 246.686998 5.59917974 247.111692 5.2792321 247.536387 4.95928445 247.74869 4.45609074 247.74869 3.7696335c0-1.32635253-.860960000000006-1.98952879-2.582897-1.98952879H242.897032V5.75917974H245.165793z" id="Shape"/></g></g></g></g></svg>