<svg width="137" height="34" xmlns="http://www.w3.org/2000/svg"><g fill="none" fill-rule="evenodd"><path d="M55.501 14c.984 0 1.782.84 1.782 1.874v7.185c0 1.178.887 2.145 2.006 2.186h.072c1.12.001 2.038-.933 2.076-2.11v-5.386C61.437 15.679 63.032 14 65 14v8.915c0 3.231-2.396 5.979-5.466 6.077-1.494.052-2.946-.526-4.034-1.604-1.088 1.08-2.54 1.659-4.034 1.609C48.396 28.9 46 26.152 46 22.92V17.75C46 15.679 47.595 14 49.563 14v9.063c0 1.179.888 2.146 2.007 2.186h.066c1.125.006 2.05-.93 2.088-2.114v-7.26c0-1.034.795-1.873 1.777-1.875z" fill="#009BFF"/><path d="M114.935 14.021a7.511 7.511 0 015.554 1.875 7.496 7.496 0 012.511 5.29v4.38A3.435 3.435 0 01119.563 29v-7.813h-.011a4.063 4.063 0 00-3.715-3.739 4.06 4.06 0 00-1.93 7.784c1.836.78 3.968.114 5.032-1.573v4.5a7.513 7.513 0 01-8.297-.958 7.494 7.494 0 01-2.274-8.029 7.505 7.505 0 016.564-5.159l.003.008z" fill="#000391"/><path d="M75.503 17.434a4.055 4.055 0 00-3.422 1.874h6.845a4.063 4.063 0 00-3.423-1.874zm3.952 4.998H71.55a4.065 4.065 0 005.355 2.875 10.153 10.153 0 013.506-.687h1.908a7.5 7.5 0 11.664-3.625l.016.018a1.42 1.42 0 01-1.42 1.42l-2.125-.001z" fill="#009BFF"/><path d="M127.499 7c1.011 0 1.923.657 2.31 1.666.388 1.01.174 2.171-.54 2.944-.716.772-1.791 1.003-2.725.586-.935-.418-1.544-1.403-1.544-2.496 0-1.49 1.119-2.7 2.499-2.7zm1.666 6.6v10.798a3.75 3.75 0 01-.974 2.547A3.211 3.211 0 01125.834 28V17.2c0-.955.35-1.87.975-2.546a3.21 3.21 0 012.356-1.054zM137 9v16.305c0 .98-.42 1.92-1.17 2.613A4.175 4.175 0 01133 29V12.692C133 10.653 134.79 9 137 9z" fill="#000391"/><path d="M94.999 15.208l5.2-6.233a2.716 2.716 0 014.8 1.744l.001 13.442A3.84 3.84 0 01101.164 28h-.024V13.87L95 21.203l-6.163-7.308v14.104A3.834 3.834 0 0185 24.16V10.703A2.701 2.701 0 0187.7 8c.799 0 1.556.353 2.07.965l5.229 6.243z" fill="#000391" fill-rule="nonzero"/><path d="M17.505 24.13L1.184 15.203a.807.807 0 00-.782.01.798.798 0 00-.402.667v14.67A3.46 3.46 0 003.469 34H31.53c.92 0 1.802-.363 2.453-1.01A3.44 3.44 0 0035 30.55V15.777a.798.798 0 00-.405-.671.807.807 0 00-.787-.005l-16.303 9.03z" fill="#000391"/><path d="M17.066 21L31.6 12.861a.78.78 0 00.133-1.268C28.35 8.645 22.477 3.64 19.339.869a3.493 3.493 0 00-4.562-.04C11.497 3.623 5.7 8.74 2.267 11.698a.78.78 0 00.133 1.268L17.066 21z" fill="#009BFF"/></g></svg>