<svg id="Layer_1" data-name="Layer 1" xmlns="http://www.w3.org/2000/svg" viewBox="0 0 500 102.88">
  <defs>
    <style>
      .cls-1 {
        fill: #070c1a;
      }

      .cls-2 {
        fill: #ffb359;
      }

      .cls-3 {
        fill: #037fff;
      }

      .cls-4 {
        fill: #ff6845;
      }

      .cls-5 {
        fill: #00d3b4;
      }
    </style>
  </defs>
  <title>WPXPO Header Fixed</title>
  <g>
    <g>
      <path class="cls-1" d="M173.1,25.73A5.14,5.14,0,0,1,178,19.07h5.65a5.7,5.7,0,0,1,3.27.89,4.13,4.13,0,0,1,1.71,2.36l8.88,33.76c.3,1.1.6,2.27.89,3.51a31.23,31.23,0,0,1,.67,3.91c.3-1.39.62-2.7,1-3.93s.69-2.39,1-3.49l10.48-33.76a4.72,4.72,0,0,1,1.71-2.25,5.16,5.16,0,0,1,3.18-1h4.44a5.54,5.54,0,0,1,3.22.87,4.46,4.46,0,0,1,1.76,2.38l10.39,33.76c.33,1,.67,2.14,1,3.31s.66,2.42.93,3.75c.24-1.3.48-2.54.73-3.73s.51-2.29.78-3.33l8.89-33.76a4.17,4.17,0,0,1,1.68-2.27,5.29,5.29,0,0,1,3.2-1h4.85a5.14,5.14,0,0,1,4.91,6.66L246.45,80.18a5.15,5.15,0,0,1-4.91,3.62h-6a5.13,5.13,0,0,1-4.92-3.64L219.56,43.69c-.21-.63-.42-1.31-.64-2s-.44-1.52-.65-2.35c-.21.83-.42,1.61-.64,2.35s-.44,1.42-.65,2L205.75,80.18a5.14,5.14,0,0,1-4.91,3.62h-6a5.14,5.14,0,0,1-4.91-3.62Z" transform="translate(0)"/>
      <path class="cls-1" d="M284.08,62.17V78.66a5.14,5.14,0,0,1-5.14,5.14H274.2a5.14,5.14,0,0,1-5.14-5.14V26a7,7,0,0,1,7-7H291.9a37.66,37.66,0,0,1,11.75,1.63,22.54,22.54,0,0,1,8.08,4.46,17.44,17.44,0,0,1,4.69,6.71,22.69,22.69,0,0,1,1.51,8.35,24.74,24.74,0,0,1-1.55,8.89A17.87,17.87,0,0,1,311.62,56a22.43,22.43,0,0,1-8.1,4.51,37.26,37.26,0,0,1-11.62,1.62Zm0-11.33h7.82q5.87,0,8.44-2.8c1.72-1.87,2.58-4.47,2.58-7.82a11.76,11.76,0,0,0-.67-4,8.13,8.13,0,0,0-2-3.13,9,9,0,0,0-3.42-2,15,15,0,0,0-4.91-.72h-7.82Z" transform="translate(0)"/>
      <path class="cls-1" d="M397.11,62.17V78.66A5.14,5.14,0,0,1,392,83.8h-4.74a5.14,5.14,0,0,1-5.14-5.14V26a7,7,0,0,1,7-7h15.88a37.66,37.66,0,0,1,11.75,1.63,22.54,22.54,0,0,1,8.08,4.46,17.44,17.44,0,0,1,4.69,6.71A22.69,22.69,0,0,1,431,40.22a24.74,24.74,0,0,1-1.55,8.89A17.87,17.87,0,0,1,424.65,56a22.43,22.43,0,0,1-8.1,4.51,37.26,37.26,0,0,1-11.62,1.62Zm0-11.33h7.82q5.86,0,8.44-2.8c1.72-1.87,2.58-4.47,2.58-7.82a11.76,11.76,0,0,0-.67-4,8.13,8.13,0,0,0-2-3.13,8.91,8.91,0,0,0-3.42-2,15,15,0,0,0-4.91-.72h-7.82Z" transform="translate(0)"/>
      <path class="cls-1" d="M500,51.42a34.87,34.87,0,0,1-2.42,13.06A31.63,31.63,0,0,1,490.76,75a31.29,31.29,0,0,1-10.6,7,38.68,38.68,0,0,1-27.52,0A31.66,31.66,0,0,1,442,75a31.22,31.22,0,0,1-6.84-10.51,34.87,34.87,0,0,1-2.42-13.06,34.83,34.83,0,0,1,2.42-13.06A30.94,30.94,0,0,1,442,27.87a31.62,31.62,0,0,1,10.64-7,36.19,36.19,0,0,1,13.77-2.54,35.6,35.6,0,0,1,13.75,2.56A30.94,30.94,0,0,1,497.58,38.4,34.77,34.77,0,0,1,500,51.42Zm-15.37,0a27.94,27.94,0,0,0-1.25-8.64,18.1,18.1,0,0,0-3.57-6.51,15.48,15.48,0,0,0-5.71-4.09,19.6,19.6,0,0,0-7.69-1.42,19.91,19.91,0,0,0-7.75,1.42,15.47,15.47,0,0,0-5.73,4.09,18.27,18.27,0,0,0-3.58,6.51,28.25,28.25,0,0,0-1.24,8.64,28.42,28.42,0,0,0,1.24,8.68,18.44,18.44,0,0,0,3.58,6.51,15.31,15.31,0,0,0,5.73,4.07,20.28,20.28,0,0,0,7.75,1.39,20,20,0,0,0,7.69-1.39,15.31,15.31,0,0,0,5.71-4.07,18.27,18.27,0,0,0,3.57-6.51A28.11,28.11,0,0,0,484.63,51.42Z" transform="translate(0)"/>
      <g>
        <path class="cls-1" d="M374.05,77.78,337.11,23A9,9,0,0,0,329.58,19l-4.85,0a3.83,3.83,0,0,0-3.12,6l17.76,26.36L321.61,77.78a3.83,3.83,0,0,0,3.12,6l4.85.06a9,9,0,0,0,7.53-4L347.83,64l10.71,15.91a9,9,0,0,0,7.53,3.94l4.85,0A3.83,3.83,0,0,0,374.05,77.78Z" transform="translate(0)"/>
        <path class="cls-1" d="M355.36,42.16a4.32,4.32,0,0,0,7.15,0L374,25.05a3.83,3.83,0,0,0-3.13-6l-4.84,0A9,9,0,0,0,358.54,23l-5.34,7.94a7.17,7.17,0,0,0,0,8Z" transform="translate(0)"/>
      </g>
    </g>
    <path class="cls-2" d="M96,10,79.45,39.16a1.78,1.78,0,0,1-3.1,0L69.45,27,59.78,10h0a5.62,5.62,0,0,1,4.89-8.39H91.13A5.62,5.62,0,0,1,96,10Z" transform="translate(0)"/>
    <path class="cls-3" d="M148.77,2.12A14.48,14.48,0,0,0,141.15,0H127.6A19.16,19.16,0,0,0,111,9.68l-1.39,2.46L95,37.88l-5.52,9.73a9.39,9.39,0,0,0,0,9.24l12.6,22.2,4.73,8.32a5.62,5.62,0,0,0,9.77,0l37.31-65.52A14.63,14.63,0,0,0,148.77,2.12Z" transform="translate(0)"/>
    <path class="cls-4" d="M66.35,47.61l-5.52-9.73L46.23,12.14,44.84,9.68A19.16,19.16,0,0,0,28.2,0H14.65a13.55,13.55,0,0,0-2.14.16A14.2,14.2,0,0,0,7,2.12,14.63,14.63,0,0,0,1.94,21.86l33.14,58.2,4.17,7.32a5.62,5.62,0,0,0,9.77,0l4.73-8.32,12.6-22.2A9.39,9.39,0,0,0,66.35,47.61Z" transform="translate(0)"/>
    <path class="cls-5" d="M91.13,102.88H64.67a5.62,5.62,0,0,1-4.89-8.4L76.35,65.29a1.78,1.78,0,0,1,3.1,0l6.9,12.15,9.67,17h0A5.62,5.62,0,0,1,91.13,102.88Z" transform="translate(0)"/>
  </g>
</svg>
